<svg id="Layer_1" data-name="Layer 1" xmlns="http://www.w3.org/2000/svg" width="499.9" height="111.1" viewBox="0 0 499.9 111.1">
  <defs>
    <style>
      .cls-1 {
        fill: #1890ff;
      }
    </style>
  </defs>
  <title>logo</title>
  <g>
    <g>
      <path class="cls-1" d="M96.5,85a2.2,2.2,0,0,0-3,.5,49.1,49.1,0,0,1-15.8,14.6,48.4,48.4,0,0,1-24.1,6.5h-.3A48.9,48.9,0,0,1,14.1,86.9h-.2a.2.2,0,0,0-.2-.2h0l-.3-.3-.4-.2H11.6l-.5.2h-.2v.3a.2.2,0,0,0-.2.2h0l-.3.2c0,.2,0,.2-.2.5v9.5a2.3,2.3,0,0,0,2.3,2.3,2.2,2.2,0,0,0,2.3-2.1V94.5a53.3,53.3,0,0,0,39,16.7H54a52.9,52.9,0,0,0,26.3-7.1A48.8,48.8,0,0,0,97.4,88a2.2,2.2,0,0,0-.9-3Z" transform="translate(0 -0.1)"/>
      <path class="cls-1" d="M51.3,7.1h0V6.6c0-.2,0-.2-.3-.4s0-.3-.2-.5l-.2-.2c0-.3-.3-.3-.5-.3L49.9,5,41.7.4a2.1,2.1,0,0,0-2.9.7c0,.1-.1.1-.1.2s-.2,2.3,1,3l2.5,1.4a56,56,0,0,0-15.8,6A55.7,55.7,0,0,0,7.4,31C-1.9,46.5-2.3,65.3,5.6,81.5a2.4,2.4,0,0,0,2,1.2,1.8,1.8,0,0,0,1-.2,2,2,0,0,0,1-2.8c0-.1-.1-.1-.1-.2a49,49,0,0,1,1.6-46.4A50,50,0,0,1,28.8,15.4,44.6,44.6,0,0,1,49.2,9.2h0a.9.9,0,0,0,.7-.3h0l.7-.4.2-.3L51,8V7.8c0-.3,0-.3.3-.5Z" transform="translate(0 -0.1)"/>
      <path class="cls-1" d="M109.3,73.9a2.3,2.3,0,0,0-3.1-.9l-2.1,1.1a52.5,52.5,0,0,0-4.6-42.9A54.6,54.6,0,0,0,58,4.8a2.1,2.1,0,0,0-2.3,1.9v.2a2.2,2.2,0,0,0,2.1,2.3h0A48.8,48.8,0,0,1,102.2,62a48,48,0,0,1-4.3,16.3v1.6c0,.3,0,.3.2.5v.2l.3.3v.2l.6.4h1.7a.2.2,0,0,0,.2-.2h0l7.7-4.4A2.8,2.8,0,0,0,109.3,73.9Z" transform="translate(0 -0.1)"/>
    </g>
    <g>
      <path class="cls-1" d="M44.1,91.8a14.7,14.7,0,0,0-2.4,3.7,14.7,14.7,0,0,1,2.4-3.7" transform="translate(0 -0.1)"/>
      <path class="cls-1" d="M49.9,14a23,23,0,0,0,3.7-.2c3.9,0,6,1.6,5.1,4.7s-6,8.5-12.8,13.2c-1.1.7-2.5-1.2-2.3-1.9l.2-.2c5.8-4,10.2-8.4,11.2-11.4s-1.7-4.6-6.1-4.2h1" transform="translate(0 -0.1)"/>
      <path class="cls-1" d="M72.6,18.2c2.3,1.2,3.2,3,2.6,5.8-2.4,8.4-18.8,21.6-36.9,29.2-3.5,1.4-6.8,2.6-9.8,3.5s-1.8-2.1-1.1-3,.4-.5.7-.5c2.7-.9,5.8-1.8,9-3.2C54,42.6,69.6,30.3,71.9,22.4c.7-2.8-.2-4.9-2.8-5.8a22.1,22.1,0,0,0,3.5,1.6" transform="translate(0 -0.1)"/>
      <path class="cls-1" d="M92.3,37l.5.9a6.7,6.7,0,0,1,.4,2.4v.2A10.6,10.6,0,0,1,91.4,37a5.5,5.5,0,0,0-.7-2.8L92.3,37" transform="translate(0 -0.1)"/>
      <path class="cls-1" d="M96.3,47a6.9,6.9,0,0,1-.3,3.5c-2.3,8.3-16.4,20.4-33.4,29.4-1.8.7-3-.7-2.5-1.8a2.7,2.7,0,0,1,.9-1.2c17.4-9,31.8-21.3,34.1-29.7a5.3,5.3,0,0,0,0-3.9A22.9,22.9,0,0,1,96.3,47" transform="translate(0 -0.1)"/>
      <path class="cls-1" d="M97.7,55.1v1.4a7.6,7.6,0,0,1-.3,2.1C96,63.7,90,70.4,81.4,76.7c-1.4.9-2.1-.5-1.8-1.4a4.2,4.2,0,0,1,.9-1.4c8.8-6.5,15.3-13.5,16.7-18.8a13.2,13.2,0,0,0,.2-2.8l.3,2.8" transform="translate(0 -0.1)"/>
      <path class="cls-1" d="M35,89c-.2-.3-1.1-1.7-2.5-1.4-7.2,1.1-12.3.4-14.4-2.1v-.2h0a10.7,10.7,0,0,1,1.4,1.6l1.4,1.6c2.1,2.3,7.2,3,13.9,1.9C35.3,90.1,35,89.4,35,89Z" transform="translate(0 -0.1)"/>
      <path class="cls-1" d="M55.7,89.9c0,.2.2.9-1,1.6-13,5.1-23.2,6.3-27.3,3.3a21,21,0,0,1-3.3-2.6c4,3.3,14.9,2.3,28.6-3.2,2.3-.5,3,.9,3,.9" transform="translate(0 -0.1)"/>
      <path class="cls-1" d="M97.7,62.5c-.3,1-.3,2.6-.5,3.5a.8.8,0,0,1-.2.7C94.9,74.8,78.6,87.6,61.2,95c-11.3,4.9-20.6,6.3-25.3,4.4-1.1-.5-2.5-1.1-3.7-1.8,15.6,6.5,63.1-19.8,65.5-35.8v.7" transform="translate(0 -0.1)"/>
      <path class="cls-1" d="M94.4,75.3C87.7,89,57.3,104.1,45.2,102.2l-4.1-.9c4.4,1.1,12.5-.3,22.2-4.4,15.8-6.8,30.4-18.1,32.5-25.6-.5,1.2-.9,2.8-1.4,4" transform="translate(0 -0.1)"/>
      <path class="cls-1" d="M84.7,89c0,.2-.5.7-1.2,1.1a61.4,61.4,0,0,1-15.8,9.3,38.8,38.8,0,0,1-12.5,3.5H50.6c3.7.2,9.2-1.2,15.7-3.7A78.6,78.6,0,0,0,84.2,88.7l.5-.2v.2c.2-.2,0,0,0,.3" transform="translate(0 -0.1)"/>
      <path class="cls-1" d="M12.1,53.9a3.7,3.7,0,0,1-1.7-1.3,5.5,5.5,0,0,1-.7-2.8l.3-1.2v.5l-.3,1.6L9.3,53h0v1.6c0,.3.2.7.2,1V56c0,.3.2.3.2.5h0a3.3,3.3,0,0,0,1.7,1.4c.4,0,.7-.7.7-1.2A4.5,4.5,0,0,0,12.1,53.9Z" transform="translate(0 -0.1)"/>
      <path class="cls-1" d="M80.7,23.3l-1.8-1.4L77.5,21c.7.7,2.3,1.6,2.1,4.2C78.9,39.8,22.3,74.6,9.5,61.1a4.4,4.4,0,0,1-.9-2.7,23,23,0,0,0,.2,3.7h0v.2h0v.2h0a.8.8,0,0,0,.2.7v.5H9c0,.2.3.2.3.5L9,63.9c.3.3.3.7.5.9h0c3.3,4.5,15.5,3.5,31.3-3.2C61,53,79.3,38.6,81.9,29.1,82.8,26.6,82.3,24.5,80.7,23.3Z" transform="translate(0 -0.1)"/>
      <path class="cls-1" d="M87.4,29.8a19.3,19.3,0,0,0-2.7-3c1.4,1.4,1.6,3.3,1.1,5.6C83.3,42.1,64,57.2,43.1,66c-16.4,7-29.2,8.1-32.7,3.5h0a3.3,3.3,0,0,1-.7-1.6,29.1,29.1,0,0,0,1.2,3.9c.2.7.2.9.7,1.2h0c3.5,4.6,16.5,3.4,33.2-3.5,21.3-9.1,40.8-24.4,43.6-34.3C88.8,33.1,88.6,31.2,87.4,29.8Z" transform="translate(0 -0.1)"/>
      <path class="cls-1" d="M41.7,15.4l-1.3.5-1.4.5-1.4.4-1.4.7L35,18l-1.1.5-1.2.4-.9.5-1,.4-.9.7-.9.7c-.5.3-.5.5-.9.7l-1,.7-.9.7-1.2,1-1.1.9a10,10,0,0,0-3,2.8,6,6,0,0,0-1.4,2.1c0,.2-.3.4-.3.6v.5a2.2,2.2,0,0,0,.3,1.6c1.4,1.9,6.5,1.4,13.2-1.4a33.6,33.6,0,0,0,6-3,.6.6,0,0,0,.3-.8l-.3-.3c-.2-.3-.9-1-1.4-.7s-3.2,1.8-4.8,2.5C27.1,31.4,23,31.7,22,30.3a2.3,2.3,0,0,1-.2-1.6,7.2,7.2,0,0,1,1.4-2.4l3.5-3.2a53.6,53.6,0,0,1,9.9-5.6,3.4,3.4,0,0,1,1.7-1.1c5.3-1.7,8.8-1.2,8.1,1.4a5.7,5.7,0,0,1-1.6,2.7c.4.5,2.5,1,3.2.5a7.8,7.8,0,0,0,2.1-3.5C50.8,14.7,47.3,13.8,41.7,15.4Z" transform="translate(0 -0.1)"/>
      <path class="cls-1" d="M29.2,36.5c-6.5,2.1-11.1,2.1-12.5.3a2.7,2.7,0,0,1-.5-2.6,5.1,5.1,0,0,1,1-2.1c.2-.4.7-.9,1.1-1.6h0l-.7.7c-.2.5-.7.9-1.1,1.6a7.1,7.1,0,0,0-1,1.4c-.2.5-.7,1.2-.9,1.6a6.1,6.1,0,0,1-.5,1.2.8.8,0,0,1-.2.7v1.2h0a1.1,1.1,0,0,0,.5.9h0c1.4,1.6,4.6,1.8,6.9,1.4,8.2-.9,8.4-2.3,8.4-3.3S30.1,36.5,29.2,36.5Z" transform="translate(0 -0.1)"/>
      <path class="cls-1" d="M64.5,15.2l-1.6-.5-1.4-.2c2.1.7,3,2.3,2.3,4.6C61.9,25.6,49.2,35.8,35,41.9c-11.1,4.6-19.7,5.3-22,2.3a4,4,0,0,1-.5-3.2,7.8,7.8,0,0,0,.5-1.4c-.5,1.1-1.2,2.7-1.6,3.9s-.3.5-.3.7-.2.7-.2.9a2.9,2.9,0,0,0,.7,2.8c2.5,3.5,11.8,2.6,24.1-2.5,15.6-6.5,29.7-17.7,31.6-24.9C68,18,66.8,16.1,64.5,15.2Z" transform="translate(0 -0.1)"/>
      <path class="cls-1" d="M15.1,81.1s-.3-.2-.7-1.4h0v-.2l-1.2-1.9c3.5,4.9,16.7,3.7,33.9-3.5A126.5,126.5,0,0,0,80.5,53.5a1.6,1.6,0,0,1,2.2.6c0,.1.1.2.1.3a1.8,1.8,0,0,1-.5,2.3C74,64.2,61.7,71.8,48.9,77.4c-16,6.7-28.5,8.1-32.9,4.4-.2.2-.7-.5-.9-.7" transform="translate(0 -0.1)"/>
      <path class="cls-1" d="M15.1,81.1" transform="translate(0 -0.1)"/>
    </g>
  </g>
  <g>
    <path class="cls-1" d="M244.5,55.5c0-19.9,14.9-33.3,33.9-33.3a28.8,28.8,0,0,1,24,11.7,3,3,0,0,1-.8,4.2l-.4.2-4.4,2.3a2.7,2.7,0,0,1-3.5-.9,19,19,0,0,0-14.9-7.3c-12.9,0-22.2,9.9-22.2,23.4s9.6,23.4,22.2,23.4a19,19,0,0,0,14.9-7.3,2.7,2.7,0,0,1,3.5-.9l4.4,2.3a2.8,2.8,0,0,1,1.2,3.9l-.3.5a29.3,29.3,0,0,1-24,11.7C259.1,89.1,244.5,75.4,244.5,55.5Z" transform="translate(0 -0.1)"/>
    <path class="cls-1" d="M358.5,55.5c0-15.5,8.7-27.8,22.2-31.9a6.5,6.5,0,0,1,2-.5,43.4,43.4,0,0,1,8.8-1.2c19.3,0,33,14,33,33.3s-13.7,33.3-33,33.3S358.5,74.8,358.5,55.5Zm54.6,0c0-13.5-8.5-23.4-21.3-23.4S370.4,42,370.4,55.5s8.5,23.4,21.4,23.4S413.1,68.9,413.1,55.5Z" transform="translate(0 -0.1)"/>
    <path class="cls-1" d="M220,23.3H209.7a3.3,3.3,0,0,0-2.6,1.8L183.7,83.8a2.8,2.8,0,0,0,1.4,3.8,3.1,3.1,0,0,0,1.3.3h6.7a3.2,3.2,0,0,0,2.6-1.7l4.1-10.5,3.2-10,3.2-8.7,8.2-22,11.7,30.7H214.4a3.4,3.4,0,0,0-2.9,2.1l-2.1,6.1a1.4,1.4,0,0,0,.9,1.9H229l4.1,10.6a2.6,2.6,0,0,0,2.6,1.7h6.8a2.9,2.9,0,0,0,2.9-2.9,2.7,2.7,0,0,0-.3-1.2l-22.5-59A2.8,2.8,0,0,0,220,23.3Z" transform="translate(0 -0.1)"/>
    <path class="cls-1" d="M183.4,49.9H162.1V33.3h30.4a2.8,2.8,0,0,0,2.6-1.8l1.8-4.1a2.8,2.8,0,0,0-1.4-3.8,3.1,3.1,0,0,0-1.3-.3H153.6a2.8,2.8,0,0,0-2.9,2.7V85a2.7,2.7,0,0,0,2.5,2.9h6a2.7,2.7,0,0,0,2.9-2.5V59.9h19.6a3.3,3.3,0,0,0,2.6-1.8l1.8-4.1a2.8,2.8,0,0,0-1.4-3.8A3.1,3.1,0,0,0,183.4,49.9Z" transform="translate(0 -0.1)"/>
    <path class="cls-1" d="M309.1,23.3a2.9,2.9,0,0,0-2.9,3.1,3,3,0,0,0,.5,1.6l2.7,4.1a2.7,2.7,0,0,0,2.3,1.2h16.4V87.9h11.4V33.3h16.3a3.7,3.7,0,0,0,2.4-1.2,18.2,18.2,0,0,1,2.9-3.8,3,3,0,0,0-.2-4.2,2.7,2.7,0,0,0-1.9-.8Z" transform="translate(0 -0.1)"/>
    <g>
      <path class="cls-1" d="M482.9,24.8,469.8,56.4a3.1,3.1,0,0,0,0,2.3l4.1,9.6c.6,1.2,2.3,1.2,2.6,0l12-28.6v45a2.7,2.7,0,0,0,2.5,2.9h6a2.7,2.7,0,0,0,2.9-2.5V26a2.7,2.7,0,0,0-2.5-2.9H485.9A3.4,3.4,0,0,0,482.9,24.8Z" transform="translate(0 -0.1)"/>
      <path class="cls-1" d="M467.7,80a3,3,0,0,0,3-2.8,2.8,2.8,0,0,0-.3-1.3L466,65.7h0L449.3,25.1a2.7,2.7,0,0,0-2.6-1.8H435.6a2.8,2.8,0,0,0-2.9,2.7V85a2.7,2.7,0,0,0,2.5,2.9h6a2.7,2.7,0,0,0,2.9-2.5V39.7L459.9,78a2.6,2.6,0,0,0,2.6,1.7h5.2Z" transform="translate(0 -0.1)"/>
    </g>
  </g>
</svg>
